%TF.GenerationSoftware,KiCad,Pcbnew,(5.1.7)-1*%
%TF.CreationDate,2021-03-06T16:41:31+01:00*%
%TF.ProjectId,VarFreq_TH,56617246-7265-4715-9f54-482e6b696361,rev?*%
%TF.SameCoordinates,Original*%
%TF.FileFunction,Copper,L1,Top*%
%TF.FilePolarity,Positive*%
%FSLAX46Y46*%
G04 Gerber Fmt 4.6, Leading zero omitted, Abs format (unit mm)*
G04 Created by KiCad (PCBNEW (5.1.7)-1) date 2021-03-06 16:41:31*
%MOMM*%
%LPD*%
G01*
G04 APERTURE LIST*
%TA.AperFunction,ComponentPad*%
%ADD10R,1.905000X2.000000*%
%TD*%
%TA.AperFunction,ComponentPad*%
%ADD11O,1.905000X2.000000*%
%TD*%
%TA.AperFunction,ComponentPad*%
%ADD12C,1.600000*%
%TD*%
%TA.AperFunction,ComponentPad*%
%ADD13R,1.800000X1.800000*%
%TD*%
%TA.AperFunction,ComponentPad*%
%ADD14C,1.800000*%
%TD*%
%TA.AperFunction,ComponentPad*%
%ADD15C,3.000000*%
%TD*%
%TA.AperFunction,ComponentPad*%
%ADD16R,3.000000X3.000000*%
%TD*%
%TA.AperFunction,ComponentPad*%
%ADD17R,1.700000X1.700000*%
%TD*%
%TA.AperFunction,ComponentPad*%
%ADD18O,1.700000X1.700000*%
%TD*%
%TA.AperFunction,ComponentPad*%
%ADD19O,1.400000X1.400000*%
%TD*%
%TA.AperFunction,ComponentPad*%
%ADD20C,1.400000*%
%TD*%
%TA.AperFunction,ComponentPad*%
%ADD21C,1.440000*%
%TD*%
%TA.AperFunction,ComponentPad*%
%ADD22R,1.600000X1.600000*%
%TD*%
%TA.AperFunction,ComponentPad*%
%ADD23O,1.600000X1.600000*%
%TD*%
%TA.AperFunction,Conductor*%
%ADD24C,0.635000*%
%TD*%
%TA.AperFunction,Conductor*%
%ADD25C,0.762000*%
%TD*%
%TA.AperFunction,Conductor*%
%ADD26C,0.254000*%
%TD*%
%TA.AperFunction,Conductor*%
%ADD27C,0.100000*%
%TD*%
G04 APERTURE END LIST*
D10*
%TO.P,U1,1*%
%TO.N,VCC*%
X30480000Y-49276000D03*
D11*
%TO.P,U1,2*%
%TO.N,GND*%
X33020000Y-49276000D03*
%TO.P,U1,3*%
%TO.N,+5V*%
X35560000Y-49276000D03*
%TD*%
D12*
%TO.P,C1,1*%
%TO.N,VCC*%
X42164000Y-56642000D03*
%TO.P,C1,2*%
%TO.N,GND*%
X42164000Y-54142000D03*
%TD*%
%TO.P,C2,2*%
%TO.N,GND*%
X42164000Y-49490000D03*
%TO.P,C2,1*%
%TO.N,+5V*%
X42164000Y-46990000D03*
%TD*%
%TO.P,C3,2*%
%TO.N,GND*%
X52498000Y-46736000D03*
%TO.P,C3,1*%
%TO.N,Net-(C3-Pad1)*%
X47498000Y-46736000D03*
%TD*%
%TO.P,C4,1*%
%TO.N,Net-(C4-Pad1)*%
X47498000Y-49530000D03*
%TO.P,C4,2*%
%TO.N,GND*%
X52498000Y-49530000D03*
%TD*%
D13*
%TO.P,D1,1*%
%TO.N,GND*%
X51054000Y-41148000D03*
D14*
%TO.P,D1,2*%
%TO.N,Net-(D1-Pad2)*%
X51054000Y-43688000D03*
%TD*%
D15*
%TO.P,J1,2*%
%TO.N,GND*%
X35560000Y-54864000D03*
D16*
%TO.P,J1,1*%
%TO.N,VCC*%
X30480000Y-54864000D03*
%TD*%
%TO.P,J2,1*%
%TO.N,+5V*%
X48768000Y-54864000D03*
D15*
%TO.P,J2,2*%
%TO.N,Net-(J2-Pad2)*%
X53848000Y-54864000D03*
%TD*%
D17*
%TO.P,J3,1*%
%TO.N,+5V*%
X41148000Y-31750000D03*
D18*
%TO.P,J3,2*%
%TO.N,Net-(J3-Pad2)*%
X43688000Y-31750000D03*
%TO.P,J3,3*%
%TO.N,VCC*%
X46228000Y-31750000D03*
%TD*%
D19*
%TO.P,R1,2*%
%TO.N,Net-(D1-Pad2)*%
X54864000Y-44704000D03*
D20*
%TO.P,R1,1*%
%TO.N,+5V*%
X54864000Y-49784000D03*
%TD*%
%TO.P,R2,1*%
%TO.N,Net-(C4-Pad1)*%
X50038000Y-38862000D03*
D19*
%TO.P,R2,2*%
%TO.N,Net-(R2-Pad2)*%
X50038000Y-33782000D03*
%TD*%
D21*
%TO.P,RV1,1*%
%TO.N,Net-(RV1-Pad1)*%
X54102000Y-37084000D03*
%TO.P,RV1,2*%
%TO.N,Net-(J2-Pad2)*%
X54102000Y-34544000D03*
%TO.P,RV1,3*%
%TO.N,Net-(R2-Pad2)*%
X54102000Y-32004000D03*
%TD*%
D22*
%TO.P,U2,1*%
%TO.N,GND*%
X39878000Y-35306000D03*
D23*
%TO.P,U2,5*%
%TO.N,Net-(C3-Pad1)*%
X47498000Y-42926000D03*
%TO.P,U2,2*%
%TO.N,Net-(C4-Pad1)*%
X39878000Y-37846000D03*
%TO.P,U2,6*%
X47498000Y-40386000D03*
%TO.P,U2,3*%
%TO.N,Net-(J2-Pad2)*%
X39878000Y-40386000D03*
%TO.P,U2,7*%
%TO.N,Net-(U2-Pad7)*%
X47498000Y-37846000D03*
%TO.P,U2,4*%
%TO.N,+5V*%
X39878000Y-42926000D03*
%TO.P,U2,8*%
%TO.N,Net-(J3-Pad2)*%
X47498000Y-35306000D03*
%TD*%
D24*
%TO.N,+5V*%
X41148000Y-42926000D02*
X39878000Y-42926000D01*
X42164000Y-46990000D02*
X42164000Y-43942000D01*
X42164000Y-43942000D02*
X41148000Y-42926000D01*
D25*
X34544000Y-48260000D02*
X35560000Y-49276000D01*
X33782000Y-47498000D02*
X34544000Y-48260000D01*
X30480000Y-47498000D02*
X33782000Y-47498000D01*
X29210000Y-46228000D02*
X30480000Y-47498000D01*
X29210000Y-37592000D02*
X29210000Y-46228000D01*
X30226000Y-36576000D02*
X29210000Y-37592000D01*
X35814000Y-36576000D02*
X30226000Y-36576000D01*
X37084000Y-35306000D02*
X35814000Y-36576000D01*
X37084000Y-33274000D02*
X37084000Y-35306000D01*
X38608000Y-31750000D02*
X37084000Y-33274000D01*
X41148000Y-31750000D02*
X38608000Y-31750000D01*
X37846000Y-46990000D02*
X42164000Y-46990000D01*
X35560000Y-49276000D02*
X37846000Y-46990000D01*
D24*
X45212000Y-51308000D02*
X48768000Y-54864000D01*
X45212000Y-48260000D02*
X45212000Y-51308000D01*
X43942000Y-46990000D02*
X45212000Y-48260000D01*
X42164000Y-46990000D02*
X43942000Y-46990000D01*
X54864000Y-52894098D02*
X54864000Y-49784000D01*
X55880000Y-53910098D02*
X54864000Y-52894098D01*
X55880000Y-56388000D02*
X55880000Y-53910098D01*
X52832000Y-57404000D02*
X54864000Y-57404000D01*
X54864000Y-57404000D02*
X55880000Y-56388000D01*
X50292000Y-54864000D02*
X52832000Y-57404000D01*
X48768000Y-54864000D02*
X50292000Y-54864000D01*
%TO.N,Net-(C3-Pad1)*%
X47498000Y-46736000D02*
X47498000Y-42926000D01*
%TO.N,Net-(D1-Pad2)*%
X54102000Y-43942000D02*
X51054000Y-43942000D01*
X54864000Y-44704000D02*
X54102000Y-43942000D01*
%TO.N,Net-(J2-Pad2)*%
X46047011Y-46555011D02*
X39878000Y-40386000D01*
X46047011Y-50282913D02*
X46047011Y-46555011D01*
X47539049Y-51774951D02*
X46047011Y-50282913D01*
X55372000Y-34544000D02*
X54102000Y-34544000D01*
X56388000Y-45212000D02*
X56388000Y-35560000D01*
X55626000Y-45974000D02*
X56388000Y-45212000D01*
X53848000Y-45974000D02*
X55626000Y-45974000D01*
X49784000Y-46482000D02*
X51054000Y-45212000D01*
X53086000Y-45212000D02*
X53848000Y-45974000D01*
X49784000Y-49530000D02*
X49784000Y-46482000D01*
X56388000Y-35560000D02*
X55372000Y-34544000D01*
X51054000Y-45212000D02*
X53086000Y-45212000D01*
X47539049Y-51774951D02*
X49784000Y-49530000D01*
X48610597Y-52846499D02*
X47539049Y-51774951D01*
X51830499Y-52846499D02*
X48610597Y-52846499D01*
X53848000Y-54864000D02*
X51830499Y-52846499D01*
D25*
%TO.N,VCC*%
X30480000Y-54737000D02*
X30607000Y-54864000D01*
X30480000Y-49276000D02*
X30480000Y-54737000D01*
D24*
X30607000Y-54864000D02*
X30734000Y-54864000D01*
D25*
X40894000Y-57912000D02*
X42164000Y-56642000D01*
X33528000Y-57912000D02*
X40894000Y-57912000D01*
X30480000Y-54864000D02*
X33528000Y-57912000D01*
X28194000Y-46990000D02*
X30480000Y-49276000D01*
X29718000Y-35560000D02*
X28194000Y-37084000D01*
X35306000Y-35560000D02*
X29718000Y-35560000D01*
X36068000Y-34798000D02*
X35306000Y-35560000D01*
X36068000Y-32766000D02*
X36068000Y-34798000D01*
X38608000Y-30226000D02*
X36068000Y-32766000D01*
X28194000Y-37084000D02*
X28194000Y-46990000D01*
X45466000Y-30226000D02*
X38608000Y-30226000D01*
X46228000Y-30988000D02*
X45466000Y-30226000D01*
X46228000Y-31750000D02*
X46228000Y-30988000D01*
D24*
%TO.N,Net-(C4-Pad1)*%
X48815501Y-41703501D02*
X47498000Y-40386000D01*
X48815501Y-48212499D02*
X48815501Y-41703501D01*
X47498000Y-49530000D02*
X48815501Y-48212499D01*
X46228000Y-40386000D02*
X47498000Y-40386000D01*
X43688000Y-37846000D02*
X46228000Y-40386000D01*
X39878000Y-37846000D02*
X43688000Y-37846000D01*
X47498000Y-40386000D02*
X49022000Y-38862000D01*
X49022000Y-38862000D02*
X50038000Y-38862000D01*
%TO.N,Net-(J3-Pad2)*%
X47244000Y-35306000D02*
X47498000Y-35306000D01*
X43688000Y-31750000D02*
X47244000Y-35306000D01*
%TO.N,Net-(R2-Pad2)*%
X50038000Y-33782000D02*
X51816000Y-32004000D01*
X51816000Y-32004000D02*
X54102000Y-32004000D01*
%TD*%
D26*
%TO.N,GND*%
X44259500Y-48654539D02*
X44259501Y-51261206D01*
X44254892Y-51308000D01*
X44273283Y-51494722D01*
X44327749Y-51674269D01*
X44381564Y-51774950D01*
X44416195Y-51839741D01*
X44535223Y-51984778D01*
X44571565Y-52014603D01*
X46629928Y-54072966D01*
X46629928Y-56364000D01*
X46642188Y-56488482D01*
X46678498Y-56608180D01*
X46737463Y-56718494D01*
X46816815Y-56815185D01*
X46913506Y-56894537D01*
X47023820Y-56953502D01*
X47143518Y-56989812D01*
X47268000Y-57002072D01*
X50268000Y-57002072D01*
X50392482Y-56989812D01*
X50512180Y-56953502D01*
X50622494Y-56894537D01*
X50719185Y-56815185D01*
X50798537Y-56718494D01*
X50798857Y-56717895D01*
X52125393Y-58044431D01*
X52155222Y-58080778D01*
X52300259Y-58199806D01*
X52465731Y-58288252D01*
X52645277Y-58342717D01*
X52831999Y-58361108D01*
X52878784Y-58356500D01*
X54817215Y-58356500D01*
X54864000Y-58361108D01*
X54910785Y-58356500D01*
X55050723Y-58342717D01*
X55230269Y-58288252D01*
X55395741Y-58199806D01*
X55540778Y-58080778D01*
X55570607Y-58044431D01*
X56490001Y-57125038D01*
X56490001Y-59538000D01*
X27838000Y-59538000D01*
X27838000Y-48070840D01*
X28889428Y-49122269D01*
X28889428Y-50276000D01*
X28901688Y-50400482D01*
X28937998Y-50520180D01*
X28996963Y-50630494D01*
X29076315Y-50727185D01*
X29173006Y-50806537D01*
X29283320Y-50865502D01*
X29403018Y-50901812D01*
X29464000Y-50907818D01*
X29464001Y-52725928D01*
X28980000Y-52725928D01*
X28855518Y-52738188D01*
X28735820Y-52774498D01*
X28625506Y-52833463D01*
X28528815Y-52912815D01*
X28449463Y-53009506D01*
X28390498Y-53119820D01*
X28354188Y-53239518D01*
X28341928Y-53364000D01*
X28341928Y-56364000D01*
X28354188Y-56488482D01*
X28390498Y-56608180D01*
X28449463Y-56718494D01*
X28528815Y-56815185D01*
X28625506Y-56894537D01*
X28735820Y-56953502D01*
X28855518Y-56989812D01*
X28980000Y-57002072D01*
X31181232Y-57002072D01*
X32774292Y-58595133D01*
X32806104Y-58633896D01*
X32960810Y-58760860D01*
X33075832Y-58822340D01*
X33137312Y-58855202D01*
X33328829Y-58913298D01*
X33528000Y-58932915D01*
X33577902Y-58928000D01*
X40844098Y-58928000D01*
X40894000Y-58932915D01*
X40943902Y-58928000D01*
X41093171Y-58913298D01*
X41284687Y-58855202D01*
X41461190Y-58760860D01*
X41615896Y-58633896D01*
X41647712Y-58595128D01*
X42165840Y-58077000D01*
X42305335Y-58077000D01*
X42582574Y-58021853D01*
X42843727Y-57913680D01*
X43078759Y-57756637D01*
X43278637Y-57556759D01*
X43435680Y-57321727D01*
X43543853Y-57060574D01*
X43599000Y-56783335D01*
X43599000Y-56500665D01*
X43543853Y-56223426D01*
X43435680Y-55962273D01*
X43278637Y-55727241D01*
X43078759Y-55527363D01*
X42878131Y-55393308D01*
X42905514Y-55378671D01*
X42977097Y-55134702D01*
X42164000Y-54321605D01*
X41350903Y-55134702D01*
X41422486Y-55378671D01*
X41451341Y-55392324D01*
X41249241Y-55527363D01*
X41049363Y-55727241D01*
X40892320Y-55962273D01*
X40784147Y-56223426D01*
X40729000Y-56500665D01*
X40729000Y-56640160D01*
X40473160Y-56896000D01*
X36215155Y-56896000D01*
X36420383Y-56829243D01*
X36716038Y-56671214D01*
X36872048Y-56355653D01*
X35560000Y-55043605D01*
X34247952Y-56355653D01*
X34403962Y-56671214D01*
X34778745Y-56862020D01*
X34899380Y-56896000D01*
X33948841Y-56896000D01*
X32618072Y-55565232D01*
X32618072Y-54906824D01*
X33415098Y-54906824D01*
X33464666Y-55324451D01*
X33594757Y-55724383D01*
X33752786Y-56020038D01*
X34068347Y-56176048D01*
X35380395Y-54864000D01*
X35739605Y-54864000D01*
X37051653Y-56176048D01*
X37367214Y-56020038D01*
X37558020Y-55645255D01*
X37672044Y-55240449D01*
X37704902Y-54821176D01*
X37655334Y-54403549D01*
X37593193Y-54212512D01*
X40723783Y-54212512D01*
X40765213Y-54492130D01*
X40860397Y-54758292D01*
X40927329Y-54883514D01*
X41171298Y-54955097D01*
X41984395Y-54142000D01*
X42343605Y-54142000D01*
X43156702Y-54955097D01*
X43400671Y-54883514D01*
X43521571Y-54628004D01*
X43590300Y-54353816D01*
X43604217Y-54071488D01*
X43562787Y-53791870D01*
X43467603Y-53525708D01*
X43400671Y-53400486D01*
X43156702Y-53328903D01*
X42343605Y-54142000D01*
X41984395Y-54142000D01*
X41171298Y-53328903D01*
X40927329Y-53400486D01*
X40806429Y-53655996D01*
X40737700Y-53930184D01*
X40723783Y-54212512D01*
X37593193Y-54212512D01*
X37525243Y-54003617D01*
X37367214Y-53707962D01*
X37051653Y-53551952D01*
X35739605Y-54864000D01*
X35380395Y-54864000D01*
X34068347Y-53551952D01*
X33752786Y-53707962D01*
X33561980Y-54082745D01*
X33447956Y-54487551D01*
X33415098Y-54906824D01*
X32618072Y-54906824D01*
X32618072Y-53372347D01*
X34247952Y-53372347D01*
X35560000Y-54684395D01*
X36872048Y-53372347D01*
X36761775Y-53149298D01*
X41350903Y-53149298D01*
X42164000Y-53962395D01*
X42977097Y-53149298D01*
X42905514Y-52905329D01*
X42650004Y-52784429D01*
X42375816Y-52715700D01*
X42093488Y-52701783D01*
X41813870Y-52743213D01*
X41547708Y-52838397D01*
X41422486Y-52905329D01*
X41350903Y-53149298D01*
X36761775Y-53149298D01*
X36716038Y-53056786D01*
X36341255Y-52865980D01*
X35936449Y-52751956D01*
X35517176Y-52719098D01*
X35099549Y-52768666D01*
X34699617Y-52898757D01*
X34403962Y-53056786D01*
X34247952Y-53372347D01*
X32618072Y-53372347D01*
X32618072Y-53364000D01*
X32605812Y-53239518D01*
X32569502Y-53119820D01*
X32510537Y-53009506D01*
X32431185Y-52912815D01*
X32334494Y-52833463D01*
X32224180Y-52774498D01*
X32104482Y-52738188D01*
X31980000Y-52725928D01*
X31496000Y-52725928D01*
X31496000Y-50907818D01*
X31556982Y-50901812D01*
X31676680Y-50865502D01*
X31786994Y-50806537D01*
X31883685Y-50727185D01*
X31963037Y-50630494D01*
X32012059Y-50538781D01*
X32153077Y-50651969D01*
X32428906Y-50795571D01*
X32647020Y-50866563D01*
X32893000Y-50746594D01*
X32893000Y-49403000D01*
X32873000Y-49403000D01*
X32873000Y-49149000D01*
X32893000Y-49149000D01*
X32893000Y-49129000D01*
X33147000Y-49129000D01*
X33147000Y-49149000D01*
X33167000Y-49149000D01*
X33167000Y-49403000D01*
X33147000Y-49403000D01*
X33147000Y-50746594D01*
X33392980Y-50866563D01*
X33611094Y-50795571D01*
X33886923Y-50651969D01*
X34129437Y-50457315D01*
X34284837Y-50272101D01*
X34432037Y-50451463D01*
X34673766Y-50649845D01*
X34949552Y-50797255D01*
X35248797Y-50888030D01*
X35560000Y-50918681D01*
X35871204Y-50888030D01*
X36170449Y-50797255D01*
X36446235Y-50649845D01*
X36649898Y-50482702D01*
X41350903Y-50482702D01*
X41422486Y-50726671D01*
X41677996Y-50847571D01*
X41952184Y-50916300D01*
X42234512Y-50930217D01*
X42514130Y-50888787D01*
X42780292Y-50793603D01*
X42905514Y-50726671D01*
X42977097Y-50482702D01*
X42164000Y-49669605D01*
X41350903Y-50482702D01*
X36649898Y-50482702D01*
X36687963Y-50451463D01*
X36886345Y-50209734D01*
X37033755Y-49933948D01*
X37124530Y-49634703D01*
X37131837Y-49560512D01*
X40723783Y-49560512D01*
X40765213Y-49840130D01*
X40860397Y-50106292D01*
X40927329Y-50231514D01*
X41171298Y-50303097D01*
X41984395Y-49490000D01*
X42343605Y-49490000D01*
X43156702Y-50303097D01*
X43400671Y-50231514D01*
X43521571Y-49976004D01*
X43590300Y-49701816D01*
X43604217Y-49419488D01*
X43562787Y-49139870D01*
X43467603Y-48873708D01*
X43400671Y-48748486D01*
X43156702Y-48676903D01*
X42343605Y-49490000D01*
X41984395Y-49490000D01*
X41171298Y-48676903D01*
X40927329Y-48748486D01*
X40806429Y-49003996D01*
X40737700Y-49278184D01*
X40723783Y-49560512D01*
X37131837Y-49560512D01*
X37147500Y-49401485D01*
X37147500Y-49150514D01*
X37145243Y-49127597D01*
X38266841Y-48006000D01*
X41150604Y-48006000D01*
X41249241Y-48104637D01*
X41449869Y-48238692D01*
X41422486Y-48253329D01*
X41350903Y-48497298D01*
X42164000Y-49310395D01*
X42977097Y-48497298D01*
X42905514Y-48253329D01*
X42876659Y-48239676D01*
X43078759Y-48104637D01*
X43240896Y-47942500D01*
X43547462Y-47942500D01*
X44259500Y-48654539D01*
%TA.AperFunction,Conductor*%
D27*
G36*
X44259500Y-48654539D02*
G01*
X44259501Y-51261206D01*
X44254892Y-51308000D01*
X44273283Y-51494722D01*
X44327749Y-51674269D01*
X44381564Y-51774950D01*
X44416195Y-51839741D01*
X44535223Y-51984778D01*
X44571565Y-52014603D01*
X46629928Y-54072966D01*
X46629928Y-56364000D01*
X46642188Y-56488482D01*
X46678498Y-56608180D01*
X46737463Y-56718494D01*
X46816815Y-56815185D01*
X46913506Y-56894537D01*
X47023820Y-56953502D01*
X47143518Y-56989812D01*
X47268000Y-57002072D01*
X50268000Y-57002072D01*
X50392482Y-56989812D01*
X50512180Y-56953502D01*
X50622494Y-56894537D01*
X50719185Y-56815185D01*
X50798537Y-56718494D01*
X50798857Y-56717895D01*
X52125393Y-58044431D01*
X52155222Y-58080778D01*
X52300259Y-58199806D01*
X52465731Y-58288252D01*
X52645277Y-58342717D01*
X52831999Y-58361108D01*
X52878784Y-58356500D01*
X54817215Y-58356500D01*
X54864000Y-58361108D01*
X54910785Y-58356500D01*
X55050723Y-58342717D01*
X55230269Y-58288252D01*
X55395741Y-58199806D01*
X55540778Y-58080778D01*
X55570607Y-58044431D01*
X56490001Y-57125038D01*
X56490001Y-59538000D01*
X27838000Y-59538000D01*
X27838000Y-48070840D01*
X28889428Y-49122269D01*
X28889428Y-50276000D01*
X28901688Y-50400482D01*
X28937998Y-50520180D01*
X28996963Y-50630494D01*
X29076315Y-50727185D01*
X29173006Y-50806537D01*
X29283320Y-50865502D01*
X29403018Y-50901812D01*
X29464000Y-50907818D01*
X29464001Y-52725928D01*
X28980000Y-52725928D01*
X28855518Y-52738188D01*
X28735820Y-52774498D01*
X28625506Y-52833463D01*
X28528815Y-52912815D01*
X28449463Y-53009506D01*
X28390498Y-53119820D01*
X28354188Y-53239518D01*
X28341928Y-53364000D01*
X28341928Y-56364000D01*
X28354188Y-56488482D01*
X28390498Y-56608180D01*
X28449463Y-56718494D01*
X28528815Y-56815185D01*
X28625506Y-56894537D01*
X28735820Y-56953502D01*
X28855518Y-56989812D01*
X28980000Y-57002072D01*
X31181232Y-57002072D01*
X32774292Y-58595133D01*
X32806104Y-58633896D01*
X32960810Y-58760860D01*
X33075832Y-58822340D01*
X33137312Y-58855202D01*
X33328829Y-58913298D01*
X33528000Y-58932915D01*
X33577902Y-58928000D01*
X40844098Y-58928000D01*
X40894000Y-58932915D01*
X40943902Y-58928000D01*
X41093171Y-58913298D01*
X41284687Y-58855202D01*
X41461190Y-58760860D01*
X41615896Y-58633896D01*
X41647712Y-58595128D01*
X42165840Y-58077000D01*
X42305335Y-58077000D01*
X42582574Y-58021853D01*
X42843727Y-57913680D01*
X43078759Y-57756637D01*
X43278637Y-57556759D01*
X43435680Y-57321727D01*
X43543853Y-57060574D01*
X43599000Y-56783335D01*
X43599000Y-56500665D01*
X43543853Y-56223426D01*
X43435680Y-55962273D01*
X43278637Y-55727241D01*
X43078759Y-55527363D01*
X42878131Y-55393308D01*
X42905514Y-55378671D01*
X42977097Y-55134702D01*
X42164000Y-54321605D01*
X41350903Y-55134702D01*
X41422486Y-55378671D01*
X41451341Y-55392324D01*
X41249241Y-55527363D01*
X41049363Y-55727241D01*
X40892320Y-55962273D01*
X40784147Y-56223426D01*
X40729000Y-56500665D01*
X40729000Y-56640160D01*
X40473160Y-56896000D01*
X36215155Y-56896000D01*
X36420383Y-56829243D01*
X36716038Y-56671214D01*
X36872048Y-56355653D01*
X35560000Y-55043605D01*
X34247952Y-56355653D01*
X34403962Y-56671214D01*
X34778745Y-56862020D01*
X34899380Y-56896000D01*
X33948841Y-56896000D01*
X32618072Y-55565232D01*
X32618072Y-54906824D01*
X33415098Y-54906824D01*
X33464666Y-55324451D01*
X33594757Y-55724383D01*
X33752786Y-56020038D01*
X34068347Y-56176048D01*
X35380395Y-54864000D01*
X35739605Y-54864000D01*
X37051653Y-56176048D01*
X37367214Y-56020038D01*
X37558020Y-55645255D01*
X37672044Y-55240449D01*
X37704902Y-54821176D01*
X37655334Y-54403549D01*
X37593193Y-54212512D01*
X40723783Y-54212512D01*
X40765213Y-54492130D01*
X40860397Y-54758292D01*
X40927329Y-54883514D01*
X41171298Y-54955097D01*
X41984395Y-54142000D01*
X42343605Y-54142000D01*
X43156702Y-54955097D01*
X43400671Y-54883514D01*
X43521571Y-54628004D01*
X43590300Y-54353816D01*
X43604217Y-54071488D01*
X43562787Y-53791870D01*
X43467603Y-53525708D01*
X43400671Y-53400486D01*
X43156702Y-53328903D01*
X42343605Y-54142000D01*
X41984395Y-54142000D01*
X41171298Y-53328903D01*
X40927329Y-53400486D01*
X40806429Y-53655996D01*
X40737700Y-53930184D01*
X40723783Y-54212512D01*
X37593193Y-54212512D01*
X37525243Y-54003617D01*
X37367214Y-53707962D01*
X37051653Y-53551952D01*
X35739605Y-54864000D01*
X35380395Y-54864000D01*
X34068347Y-53551952D01*
X33752786Y-53707962D01*
X33561980Y-54082745D01*
X33447956Y-54487551D01*
X33415098Y-54906824D01*
X32618072Y-54906824D01*
X32618072Y-53372347D01*
X34247952Y-53372347D01*
X35560000Y-54684395D01*
X36872048Y-53372347D01*
X36761775Y-53149298D01*
X41350903Y-53149298D01*
X42164000Y-53962395D01*
X42977097Y-53149298D01*
X42905514Y-52905329D01*
X42650004Y-52784429D01*
X42375816Y-52715700D01*
X42093488Y-52701783D01*
X41813870Y-52743213D01*
X41547708Y-52838397D01*
X41422486Y-52905329D01*
X41350903Y-53149298D01*
X36761775Y-53149298D01*
X36716038Y-53056786D01*
X36341255Y-52865980D01*
X35936449Y-52751956D01*
X35517176Y-52719098D01*
X35099549Y-52768666D01*
X34699617Y-52898757D01*
X34403962Y-53056786D01*
X34247952Y-53372347D01*
X32618072Y-53372347D01*
X32618072Y-53364000D01*
X32605812Y-53239518D01*
X32569502Y-53119820D01*
X32510537Y-53009506D01*
X32431185Y-52912815D01*
X32334494Y-52833463D01*
X32224180Y-52774498D01*
X32104482Y-52738188D01*
X31980000Y-52725928D01*
X31496000Y-52725928D01*
X31496000Y-50907818D01*
X31556982Y-50901812D01*
X31676680Y-50865502D01*
X31786994Y-50806537D01*
X31883685Y-50727185D01*
X31963037Y-50630494D01*
X32012059Y-50538781D01*
X32153077Y-50651969D01*
X32428906Y-50795571D01*
X32647020Y-50866563D01*
X32893000Y-50746594D01*
X32893000Y-49403000D01*
X32873000Y-49403000D01*
X32873000Y-49149000D01*
X32893000Y-49149000D01*
X32893000Y-49129000D01*
X33147000Y-49129000D01*
X33147000Y-49149000D01*
X33167000Y-49149000D01*
X33167000Y-49403000D01*
X33147000Y-49403000D01*
X33147000Y-50746594D01*
X33392980Y-50866563D01*
X33611094Y-50795571D01*
X33886923Y-50651969D01*
X34129437Y-50457315D01*
X34284837Y-50272101D01*
X34432037Y-50451463D01*
X34673766Y-50649845D01*
X34949552Y-50797255D01*
X35248797Y-50888030D01*
X35560000Y-50918681D01*
X35871204Y-50888030D01*
X36170449Y-50797255D01*
X36446235Y-50649845D01*
X36649898Y-50482702D01*
X41350903Y-50482702D01*
X41422486Y-50726671D01*
X41677996Y-50847571D01*
X41952184Y-50916300D01*
X42234512Y-50930217D01*
X42514130Y-50888787D01*
X42780292Y-50793603D01*
X42905514Y-50726671D01*
X42977097Y-50482702D01*
X42164000Y-49669605D01*
X41350903Y-50482702D01*
X36649898Y-50482702D01*
X36687963Y-50451463D01*
X36886345Y-50209734D01*
X37033755Y-49933948D01*
X37124530Y-49634703D01*
X37131837Y-49560512D01*
X40723783Y-49560512D01*
X40765213Y-49840130D01*
X40860397Y-50106292D01*
X40927329Y-50231514D01*
X41171298Y-50303097D01*
X41984395Y-49490000D01*
X42343605Y-49490000D01*
X43156702Y-50303097D01*
X43400671Y-50231514D01*
X43521571Y-49976004D01*
X43590300Y-49701816D01*
X43604217Y-49419488D01*
X43562787Y-49139870D01*
X43467603Y-48873708D01*
X43400671Y-48748486D01*
X43156702Y-48676903D01*
X42343605Y-49490000D01*
X41984395Y-49490000D01*
X41171298Y-48676903D01*
X40927329Y-48748486D01*
X40806429Y-49003996D01*
X40737700Y-49278184D01*
X40723783Y-49560512D01*
X37131837Y-49560512D01*
X37147500Y-49401485D01*
X37147500Y-49150514D01*
X37145243Y-49127597D01*
X38266841Y-48006000D01*
X41150604Y-48006000D01*
X41249241Y-48104637D01*
X41449869Y-48238692D01*
X41422486Y-48253329D01*
X41350903Y-48497298D01*
X42164000Y-49310395D01*
X42977097Y-48497298D01*
X42905514Y-48253329D01*
X42876659Y-48239676D01*
X43078759Y-48104637D01*
X43240896Y-47942500D01*
X43547462Y-47942500D01*
X44259500Y-48654539D01*
G37*
%TD.AperFunction*%
D26*
X56490001Y-53173060D02*
X55816500Y-52499560D01*
X55816500Y-50719475D01*
X55900962Y-50635013D01*
X56047061Y-50416359D01*
X56147696Y-50173405D01*
X56199000Y-49915486D01*
X56199000Y-49652514D01*
X56147696Y-49394595D01*
X56047061Y-49151641D01*
X55900962Y-48932987D01*
X55715013Y-48747038D01*
X55496359Y-48600939D01*
X55253405Y-48500304D01*
X54995486Y-48449000D01*
X54732514Y-48449000D01*
X54474595Y-48500304D01*
X54231641Y-48600939D01*
X54012987Y-48747038D01*
X53827038Y-48932987D01*
X53814961Y-48951061D01*
X53801603Y-48913708D01*
X53734671Y-48788486D01*
X53490702Y-48716903D01*
X52677605Y-49530000D01*
X53490702Y-50343097D01*
X53633266Y-50301267D01*
X53680939Y-50416359D01*
X53827038Y-50635013D01*
X53911501Y-50719476D01*
X53911500Y-52729000D01*
X53637721Y-52729000D01*
X53225244Y-52811047D01*
X53166442Y-52835404D01*
X52537106Y-52206068D01*
X52507277Y-52169721D01*
X52362240Y-52050693D01*
X52196768Y-51962247D01*
X52017222Y-51907782D01*
X51877284Y-51893999D01*
X51830499Y-51889391D01*
X51783714Y-51893999D01*
X49005136Y-51893999D01*
X48886087Y-51774951D01*
X50138336Y-50522702D01*
X51684903Y-50522702D01*
X51756486Y-50766671D01*
X52011996Y-50887571D01*
X52286184Y-50956300D01*
X52568512Y-50970217D01*
X52848130Y-50928787D01*
X53114292Y-50833603D01*
X53239514Y-50766671D01*
X53311097Y-50522702D01*
X52498000Y-49709605D01*
X51684903Y-50522702D01*
X50138336Y-50522702D01*
X50424438Y-50236601D01*
X50460778Y-50206778D01*
X50579806Y-50061741D01*
X50668252Y-49896269D01*
X50722717Y-49716723D01*
X50734163Y-49600512D01*
X51057783Y-49600512D01*
X51099213Y-49880130D01*
X51194397Y-50146292D01*
X51261329Y-50271514D01*
X51505298Y-50343097D01*
X52318395Y-49530000D01*
X51505298Y-48716903D01*
X51261329Y-48788486D01*
X51140429Y-49043996D01*
X51071700Y-49318184D01*
X51057783Y-49600512D01*
X50734163Y-49600512D01*
X50736500Y-49576785D01*
X50736500Y-49576784D01*
X50741108Y-49530001D01*
X50736500Y-49483216D01*
X50736500Y-47728702D01*
X51684903Y-47728702D01*
X51756486Y-47972671D01*
X52011996Y-48093571D01*
X52156855Y-48129882D01*
X52147870Y-48131213D01*
X51881708Y-48226397D01*
X51756486Y-48293329D01*
X51684903Y-48537298D01*
X52498000Y-49350395D01*
X53311097Y-48537298D01*
X53239514Y-48293329D01*
X52984004Y-48172429D01*
X52839145Y-48136118D01*
X52848130Y-48134787D01*
X53114292Y-48039603D01*
X53239514Y-47972671D01*
X53311097Y-47728702D01*
X52498000Y-46915605D01*
X51684903Y-47728702D01*
X50736500Y-47728702D01*
X50736500Y-46876538D01*
X51070811Y-46542228D01*
X51057783Y-46806512D01*
X51099213Y-47086130D01*
X51194397Y-47352292D01*
X51261329Y-47477514D01*
X51505298Y-47549097D01*
X52318395Y-46736000D01*
X52304253Y-46721858D01*
X52483858Y-46542253D01*
X52498000Y-46556395D01*
X52512143Y-46542253D01*
X52691748Y-46721858D01*
X52677605Y-46736000D01*
X53490702Y-47549097D01*
X53734671Y-47477514D01*
X53855571Y-47222004D01*
X53924300Y-46947816D01*
X53925351Y-46926500D01*
X55579215Y-46926500D01*
X55626000Y-46931108D01*
X55672785Y-46926500D01*
X55812723Y-46912717D01*
X55992269Y-46858252D01*
X56157741Y-46769806D01*
X56302778Y-46650778D01*
X56332607Y-46614431D01*
X56490001Y-46457038D01*
X56490001Y-53173060D01*
%TA.AperFunction,Conductor*%
D27*
G36*
X56490001Y-53173060D02*
G01*
X55816500Y-52499560D01*
X55816500Y-50719475D01*
X55900962Y-50635013D01*
X56047061Y-50416359D01*
X56147696Y-50173405D01*
X56199000Y-49915486D01*
X56199000Y-49652514D01*
X56147696Y-49394595D01*
X56047061Y-49151641D01*
X55900962Y-48932987D01*
X55715013Y-48747038D01*
X55496359Y-48600939D01*
X55253405Y-48500304D01*
X54995486Y-48449000D01*
X54732514Y-48449000D01*
X54474595Y-48500304D01*
X54231641Y-48600939D01*
X54012987Y-48747038D01*
X53827038Y-48932987D01*
X53814961Y-48951061D01*
X53801603Y-48913708D01*
X53734671Y-48788486D01*
X53490702Y-48716903D01*
X52677605Y-49530000D01*
X53490702Y-50343097D01*
X53633266Y-50301267D01*
X53680939Y-50416359D01*
X53827038Y-50635013D01*
X53911501Y-50719476D01*
X53911500Y-52729000D01*
X53637721Y-52729000D01*
X53225244Y-52811047D01*
X53166442Y-52835404D01*
X52537106Y-52206068D01*
X52507277Y-52169721D01*
X52362240Y-52050693D01*
X52196768Y-51962247D01*
X52017222Y-51907782D01*
X51877284Y-51893999D01*
X51830499Y-51889391D01*
X51783714Y-51893999D01*
X49005136Y-51893999D01*
X48886087Y-51774951D01*
X50138336Y-50522702D01*
X51684903Y-50522702D01*
X51756486Y-50766671D01*
X52011996Y-50887571D01*
X52286184Y-50956300D01*
X52568512Y-50970217D01*
X52848130Y-50928787D01*
X53114292Y-50833603D01*
X53239514Y-50766671D01*
X53311097Y-50522702D01*
X52498000Y-49709605D01*
X51684903Y-50522702D01*
X50138336Y-50522702D01*
X50424438Y-50236601D01*
X50460778Y-50206778D01*
X50579806Y-50061741D01*
X50668252Y-49896269D01*
X50722717Y-49716723D01*
X50734163Y-49600512D01*
X51057783Y-49600512D01*
X51099213Y-49880130D01*
X51194397Y-50146292D01*
X51261329Y-50271514D01*
X51505298Y-50343097D01*
X52318395Y-49530000D01*
X51505298Y-48716903D01*
X51261329Y-48788486D01*
X51140429Y-49043996D01*
X51071700Y-49318184D01*
X51057783Y-49600512D01*
X50734163Y-49600512D01*
X50736500Y-49576785D01*
X50736500Y-49576784D01*
X50741108Y-49530001D01*
X50736500Y-49483216D01*
X50736500Y-47728702D01*
X51684903Y-47728702D01*
X51756486Y-47972671D01*
X52011996Y-48093571D01*
X52156855Y-48129882D01*
X52147870Y-48131213D01*
X51881708Y-48226397D01*
X51756486Y-48293329D01*
X51684903Y-48537298D01*
X52498000Y-49350395D01*
X53311097Y-48537298D01*
X53239514Y-48293329D01*
X52984004Y-48172429D01*
X52839145Y-48136118D01*
X52848130Y-48134787D01*
X53114292Y-48039603D01*
X53239514Y-47972671D01*
X53311097Y-47728702D01*
X52498000Y-46915605D01*
X51684903Y-47728702D01*
X50736500Y-47728702D01*
X50736500Y-46876538D01*
X51070811Y-46542228D01*
X51057783Y-46806512D01*
X51099213Y-47086130D01*
X51194397Y-47352292D01*
X51261329Y-47477514D01*
X51505298Y-47549097D01*
X52318395Y-46736000D01*
X52304253Y-46721858D01*
X52483858Y-46542253D01*
X52498000Y-46556395D01*
X52512143Y-46542253D01*
X52691748Y-46721858D01*
X52677605Y-46736000D01*
X53490702Y-47549097D01*
X53734671Y-47477514D01*
X53855571Y-47222004D01*
X53924300Y-46947816D01*
X53925351Y-46926500D01*
X55579215Y-46926500D01*
X55626000Y-46931108D01*
X55672785Y-46926500D01*
X55812723Y-46912717D01*
X55992269Y-46858252D01*
X56157741Y-46769806D01*
X56302778Y-46650778D01*
X56332607Y-46614431D01*
X56490001Y-46457038D01*
X56490001Y-53173060D01*
G37*
%TD.AperFunction*%
D26*
X39708498Y-32844180D02*
X39767463Y-32954494D01*
X39846815Y-33051185D01*
X39943506Y-33130537D01*
X40053820Y-33189502D01*
X40173518Y-33225812D01*
X40298000Y-33238072D01*
X41998000Y-33238072D01*
X42122482Y-33225812D01*
X42242180Y-33189502D01*
X42352494Y-33130537D01*
X42449185Y-33051185D01*
X42528537Y-32954494D01*
X42587502Y-32844180D01*
X42609513Y-32771620D01*
X42741368Y-32903475D01*
X42984589Y-33065990D01*
X43254842Y-33177932D01*
X43541740Y-33235000D01*
X43825962Y-33235000D01*
X46069134Y-35478172D01*
X46118147Y-35724574D01*
X46226320Y-35985727D01*
X46383363Y-36220759D01*
X46583241Y-36420637D01*
X46815759Y-36576000D01*
X46583241Y-36731363D01*
X46383363Y-36931241D01*
X46226320Y-37166273D01*
X46118147Y-37427426D01*
X46063000Y-37704665D01*
X46063000Y-37987335D01*
X46118147Y-38264574D01*
X46226320Y-38525727D01*
X46383363Y-38760759D01*
X46583241Y-38960637D01*
X46815759Y-39116000D01*
X46583241Y-39271363D01*
X46521821Y-39332783D01*
X44394607Y-37205569D01*
X44364778Y-37169222D01*
X44219741Y-37050194D01*
X44054269Y-36961748D01*
X43874723Y-36907283D01*
X43734785Y-36893500D01*
X43688000Y-36888892D01*
X43641215Y-36893500D01*
X40954896Y-36893500D01*
X40794039Y-36732643D01*
X40802482Y-36731812D01*
X40922180Y-36695502D01*
X41032494Y-36636537D01*
X41129185Y-36557185D01*
X41208537Y-36460494D01*
X41267502Y-36350180D01*
X41303812Y-36230482D01*
X41316072Y-36106000D01*
X41313000Y-35591750D01*
X41154250Y-35433000D01*
X40005000Y-35433000D01*
X40005000Y-35453000D01*
X39751000Y-35453000D01*
X39751000Y-35433000D01*
X38601750Y-35433000D01*
X38443000Y-35591750D01*
X38439928Y-36106000D01*
X38452188Y-36230482D01*
X38488498Y-36350180D01*
X38547463Y-36460494D01*
X38626815Y-36557185D01*
X38723506Y-36636537D01*
X38833820Y-36695502D01*
X38953518Y-36731812D01*
X38961961Y-36732643D01*
X38763363Y-36931241D01*
X38606320Y-37166273D01*
X38498147Y-37427426D01*
X38443000Y-37704665D01*
X38443000Y-37987335D01*
X38498147Y-38264574D01*
X38606320Y-38525727D01*
X38763363Y-38760759D01*
X38963241Y-38960637D01*
X39195759Y-39116000D01*
X38963241Y-39271363D01*
X38763363Y-39471241D01*
X38606320Y-39706273D01*
X38498147Y-39967426D01*
X38443000Y-40244665D01*
X38443000Y-40527335D01*
X38498147Y-40804574D01*
X38606320Y-41065727D01*
X38763363Y-41300759D01*
X38963241Y-41500637D01*
X39195759Y-41656000D01*
X38963241Y-41811363D01*
X38763363Y-42011241D01*
X38606320Y-42246273D01*
X38498147Y-42507426D01*
X38443000Y-42784665D01*
X38443000Y-43067335D01*
X38498147Y-43344574D01*
X38606320Y-43605727D01*
X38763363Y-43840759D01*
X38963241Y-44040637D01*
X39198273Y-44197680D01*
X39459426Y-44305853D01*
X39736665Y-44361000D01*
X40019335Y-44361000D01*
X40296574Y-44305853D01*
X40557727Y-44197680D01*
X40792759Y-44040637D01*
X40854179Y-43979217D01*
X41211501Y-44336540D01*
X41211500Y-45913104D01*
X41150604Y-45974000D01*
X37895893Y-45974000D01*
X37845999Y-45969086D01*
X37796105Y-45974000D01*
X37796098Y-45974000D01*
X37646829Y-45988702D01*
X37455313Y-46046798D01*
X37278810Y-46141140D01*
X37124104Y-46268104D01*
X37092292Y-46306867D01*
X35747385Y-47651775D01*
X35560000Y-47633319D01*
X35372615Y-47651775D01*
X35297710Y-47576870D01*
X35297706Y-47576865D01*
X34535712Y-46814872D01*
X34503896Y-46776104D01*
X34349190Y-46649140D01*
X34172687Y-46554798D01*
X33981171Y-46496702D01*
X33831902Y-46482000D01*
X33782000Y-46477085D01*
X33732098Y-46482000D01*
X30900841Y-46482000D01*
X30226000Y-45807160D01*
X30226000Y-38012840D01*
X30646841Y-37592000D01*
X35764098Y-37592000D01*
X35814000Y-37596915D01*
X35863902Y-37592000D01*
X36013171Y-37577298D01*
X36204687Y-37519202D01*
X36381190Y-37424860D01*
X36535896Y-37297896D01*
X36567712Y-37259128D01*
X37767133Y-36059708D01*
X37805896Y-36027896D01*
X37932860Y-35873190D01*
X38027202Y-35696687D01*
X38085298Y-35505171D01*
X38100000Y-35355902D01*
X38100000Y-35355895D01*
X38104914Y-35306001D01*
X38100000Y-35256107D01*
X38100000Y-34506000D01*
X38439928Y-34506000D01*
X38443000Y-35020250D01*
X38601750Y-35179000D01*
X39751000Y-35179000D01*
X39751000Y-34029750D01*
X40005000Y-34029750D01*
X40005000Y-35179000D01*
X41154250Y-35179000D01*
X41313000Y-35020250D01*
X41316072Y-34506000D01*
X41303812Y-34381518D01*
X41267502Y-34261820D01*
X41208537Y-34151506D01*
X41129185Y-34054815D01*
X41032494Y-33975463D01*
X40922180Y-33916498D01*
X40802482Y-33880188D01*
X40678000Y-33867928D01*
X40163750Y-33871000D01*
X40005000Y-34029750D01*
X39751000Y-34029750D01*
X39592250Y-33871000D01*
X39078000Y-33867928D01*
X38953518Y-33880188D01*
X38833820Y-33916498D01*
X38723506Y-33975463D01*
X38626815Y-34054815D01*
X38547463Y-34151506D01*
X38488498Y-34261820D01*
X38452188Y-34381518D01*
X38439928Y-34506000D01*
X38100000Y-34506000D01*
X38100000Y-33694840D01*
X39028841Y-32766000D01*
X39684782Y-32766000D01*
X39708498Y-32844180D01*
%TA.AperFunction,Conductor*%
D27*
G36*
X39708498Y-32844180D02*
G01*
X39767463Y-32954494D01*
X39846815Y-33051185D01*
X39943506Y-33130537D01*
X40053820Y-33189502D01*
X40173518Y-33225812D01*
X40298000Y-33238072D01*
X41998000Y-33238072D01*
X42122482Y-33225812D01*
X42242180Y-33189502D01*
X42352494Y-33130537D01*
X42449185Y-33051185D01*
X42528537Y-32954494D01*
X42587502Y-32844180D01*
X42609513Y-32771620D01*
X42741368Y-32903475D01*
X42984589Y-33065990D01*
X43254842Y-33177932D01*
X43541740Y-33235000D01*
X43825962Y-33235000D01*
X46069134Y-35478172D01*
X46118147Y-35724574D01*
X46226320Y-35985727D01*
X46383363Y-36220759D01*
X46583241Y-36420637D01*
X46815759Y-36576000D01*
X46583241Y-36731363D01*
X46383363Y-36931241D01*
X46226320Y-37166273D01*
X46118147Y-37427426D01*
X46063000Y-37704665D01*
X46063000Y-37987335D01*
X46118147Y-38264574D01*
X46226320Y-38525727D01*
X46383363Y-38760759D01*
X46583241Y-38960637D01*
X46815759Y-39116000D01*
X46583241Y-39271363D01*
X46521821Y-39332783D01*
X44394607Y-37205569D01*
X44364778Y-37169222D01*
X44219741Y-37050194D01*
X44054269Y-36961748D01*
X43874723Y-36907283D01*
X43734785Y-36893500D01*
X43688000Y-36888892D01*
X43641215Y-36893500D01*
X40954896Y-36893500D01*
X40794039Y-36732643D01*
X40802482Y-36731812D01*
X40922180Y-36695502D01*
X41032494Y-36636537D01*
X41129185Y-36557185D01*
X41208537Y-36460494D01*
X41267502Y-36350180D01*
X41303812Y-36230482D01*
X41316072Y-36106000D01*
X41313000Y-35591750D01*
X41154250Y-35433000D01*
X40005000Y-35433000D01*
X40005000Y-35453000D01*
X39751000Y-35453000D01*
X39751000Y-35433000D01*
X38601750Y-35433000D01*
X38443000Y-35591750D01*
X38439928Y-36106000D01*
X38452188Y-36230482D01*
X38488498Y-36350180D01*
X38547463Y-36460494D01*
X38626815Y-36557185D01*
X38723506Y-36636537D01*
X38833820Y-36695502D01*
X38953518Y-36731812D01*
X38961961Y-36732643D01*
X38763363Y-36931241D01*
X38606320Y-37166273D01*
X38498147Y-37427426D01*
X38443000Y-37704665D01*
X38443000Y-37987335D01*
X38498147Y-38264574D01*
X38606320Y-38525727D01*
X38763363Y-38760759D01*
X38963241Y-38960637D01*
X39195759Y-39116000D01*
X38963241Y-39271363D01*
X38763363Y-39471241D01*
X38606320Y-39706273D01*
X38498147Y-39967426D01*
X38443000Y-40244665D01*
X38443000Y-40527335D01*
X38498147Y-40804574D01*
X38606320Y-41065727D01*
X38763363Y-41300759D01*
X38963241Y-41500637D01*
X39195759Y-41656000D01*
X38963241Y-41811363D01*
X38763363Y-42011241D01*
X38606320Y-42246273D01*
X38498147Y-42507426D01*
X38443000Y-42784665D01*
X38443000Y-43067335D01*
X38498147Y-43344574D01*
X38606320Y-43605727D01*
X38763363Y-43840759D01*
X38963241Y-44040637D01*
X39198273Y-44197680D01*
X39459426Y-44305853D01*
X39736665Y-44361000D01*
X40019335Y-44361000D01*
X40296574Y-44305853D01*
X40557727Y-44197680D01*
X40792759Y-44040637D01*
X40854179Y-43979217D01*
X41211501Y-44336540D01*
X41211500Y-45913104D01*
X41150604Y-45974000D01*
X37895893Y-45974000D01*
X37845999Y-45969086D01*
X37796105Y-45974000D01*
X37796098Y-45974000D01*
X37646829Y-45988702D01*
X37455313Y-46046798D01*
X37278810Y-46141140D01*
X37124104Y-46268104D01*
X37092292Y-46306867D01*
X35747385Y-47651775D01*
X35560000Y-47633319D01*
X35372615Y-47651775D01*
X35297710Y-47576870D01*
X35297706Y-47576865D01*
X34535712Y-46814872D01*
X34503896Y-46776104D01*
X34349190Y-46649140D01*
X34172687Y-46554798D01*
X33981171Y-46496702D01*
X33831902Y-46482000D01*
X33782000Y-46477085D01*
X33732098Y-46482000D01*
X30900841Y-46482000D01*
X30226000Y-45807160D01*
X30226000Y-38012840D01*
X30646841Y-37592000D01*
X35764098Y-37592000D01*
X35814000Y-37596915D01*
X35863902Y-37592000D01*
X36013171Y-37577298D01*
X36204687Y-37519202D01*
X36381190Y-37424860D01*
X36535896Y-37297896D01*
X36567712Y-37259128D01*
X37767133Y-36059708D01*
X37805896Y-36027896D01*
X37932860Y-35873190D01*
X38027202Y-35696687D01*
X38085298Y-35505171D01*
X38100000Y-35355902D01*
X38100000Y-35355895D01*
X38104914Y-35306001D01*
X38100000Y-35256107D01*
X38100000Y-34506000D01*
X38439928Y-34506000D01*
X38443000Y-35020250D01*
X38601750Y-35179000D01*
X39751000Y-35179000D01*
X39751000Y-34029750D01*
X40005000Y-34029750D01*
X40005000Y-35179000D01*
X41154250Y-35179000D01*
X41313000Y-35020250D01*
X41316072Y-34506000D01*
X41303812Y-34381518D01*
X41267502Y-34261820D01*
X41208537Y-34151506D01*
X41129185Y-34054815D01*
X41032494Y-33975463D01*
X40922180Y-33916498D01*
X40802482Y-33880188D01*
X40678000Y-33867928D01*
X40163750Y-33871000D01*
X40005000Y-34029750D01*
X39751000Y-34029750D01*
X39592250Y-33871000D01*
X39078000Y-33867928D01*
X38953518Y-33880188D01*
X38833820Y-33916498D01*
X38723506Y-33975463D01*
X38626815Y-34054815D01*
X38547463Y-34151506D01*
X38488498Y-34261820D01*
X38452188Y-34381518D01*
X38439928Y-34506000D01*
X38100000Y-34506000D01*
X38100000Y-33694840D01*
X39028841Y-32766000D01*
X39684782Y-32766000D01*
X39708498Y-32844180D01*
G37*
%TD.AperFunction*%
D26*
X56490000Y-34314962D02*
X56078607Y-33903569D01*
X56048778Y-33867222D01*
X55903741Y-33748194D01*
X55738269Y-33659748D01*
X55558723Y-33605283D01*
X55418785Y-33591500D01*
X55372000Y-33586892D01*
X55325215Y-33591500D01*
X55065759Y-33591500D01*
X54965762Y-33491503D01*
X54743833Y-33343215D01*
X54576734Y-33274000D01*
X54743833Y-33204785D01*
X54965762Y-33056497D01*
X55154497Y-32867762D01*
X55302785Y-32645833D01*
X55404928Y-32399239D01*
X55457000Y-32137456D01*
X55457000Y-31870544D01*
X55404928Y-31608761D01*
X55302785Y-31362167D01*
X55154497Y-31140238D01*
X54965762Y-30951503D01*
X54743833Y-30803215D01*
X54497239Y-30701072D01*
X54235456Y-30649000D01*
X53968544Y-30649000D01*
X53706761Y-30701072D01*
X53460167Y-30803215D01*
X53238238Y-30951503D01*
X53138241Y-31051500D01*
X51862785Y-31051500D01*
X51816000Y-31046892D01*
X51769215Y-31051500D01*
X51629277Y-31065283D01*
X51539504Y-31092516D01*
X51449730Y-31119748D01*
X51366995Y-31163971D01*
X51284259Y-31208194D01*
X51139222Y-31327222D01*
X51109397Y-31363564D01*
X50025962Y-32447000D01*
X49906514Y-32447000D01*
X49648595Y-32498304D01*
X49405641Y-32598939D01*
X49186987Y-32745038D01*
X49001038Y-32930987D01*
X48854939Y-33149641D01*
X48754304Y-33392595D01*
X48703000Y-33650514D01*
X48703000Y-33913486D01*
X48754304Y-34171405D01*
X48854939Y-34414359D01*
X49001038Y-34633013D01*
X49186987Y-34818962D01*
X49405641Y-34965061D01*
X49648595Y-35065696D01*
X49906514Y-35117000D01*
X50169486Y-35117000D01*
X50427405Y-35065696D01*
X50670359Y-34965061D01*
X50889013Y-34818962D01*
X51074962Y-34633013D01*
X51221061Y-34414359D01*
X51321696Y-34171405D01*
X51373000Y-33913486D01*
X51373000Y-33794038D01*
X52210539Y-32956500D01*
X53138241Y-32956500D01*
X53238238Y-33056497D01*
X53460167Y-33204785D01*
X53627266Y-33274000D01*
X53460167Y-33343215D01*
X53238238Y-33491503D01*
X53049503Y-33680238D01*
X52901215Y-33902167D01*
X52799072Y-34148761D01*
X52747000Y-34410544D01*
X52747000Y-34677456D01*
X52799072Y-34939239D01*
X52901215Y-35185833D01*
X53049503Y-35407762D01*
X53238238Y-35596497D01*
X53460167Y-35744785D01*
X53627266Y-35814000D01*
X53460167Y-35883215D01*
X53238238Y-36031503D01*
X53049503Y-36220238D01*
X52901215Y-36442167D01*
X52799072Y-36688761D01*
X52747000Y-36950544D01*
X52747000Y-37217456D01*
X52799072Y-37479239D01*
X52901215Y-37725833D01*
X53049503Y-37947762D01*
X53238238Y-38136497D01*
X53460167Y-38284785D01*
X53706761Y-38386928D01*
X53968544Y-38439000D01*
X54235456Y-38439000D01*
X54497239Y-38386928D01*
X54743833Y-38284785D01*
X54965762Y-38136497D01*
X55154497Y-37947762D01*
X55302785Y-37725833D01*
X55404928Y-37479239D01*
X55435501Y-37325539D01*
X55435500Y-43495730D01*
X55253405Y-43420304D01*
X54995486Y-43369000D01*
X54876038Y-43369000D01*
X54808607Y-43301569D01*
X54778778Y-43265222D01*
X54633741Y-43146194D01*
X54468269Y-43057748D01*
X54288723Y-43003283D01*
X54148785Y-42989500D01*
X54102000Y-42984892D01*
X54055215Y-42989500D01*
X52426143Y-42989500D01*
X52414299Y-42960905D01*
X52246312Y-42709495D01*
X52179873Y-42643056D01*
X52198180Y-42637502D01*
X52308494Y-42578537D01*
X52405185Y-42499185D01*
X52484537Y-42402494D01*
X52543502Y-42292180D01*
X52579812Y-42172482D01*
X52592072Y-42048000D01*
X52589000Y-41433750D01*
X52430250Y-41275000D01*
X51181000Y-41275000D01*
X51181000Y-41295000D01*
X50927000Y-41295000D01*
X50927000Y-41275000D01*
X50907000Y-41275000D01*
X50907000Y-41021000D01*
X50927000Y-41021000D01*
X50927000Y-41001000D01*
X51181000Y-41001000D01*
X51181000Y-41021000D01*
X52430250Y-41021000D01*
X52589000Y-40862250D01*
X52592072Y-40248000D01*
X52579812Y-40123518D01*
X52543502Y-40003820D01*
X52484537Y-39893506D01*
X52405185Y-39796815D01*
X52308494Y-39717463D01*
X52198180Y-39658498D01*
X52078482Y-39622188D01*
X51954000Y-39609928D01*
X51339750Y-39613000D01*
X51181002Y-39771748D01*
X51181002Y-39613000D01*
X51141788Y-39613000D01*
X51221061Y-39494359D01*
X51321696Y-39251405D01*
X51373000Y-38993486D01*
X51373000Y-38730514D01*
X51321696Y-38472595D01*
X51221061Y-38229641D01*
X51074962Y-38010987D01*
X50889013Y-37825038D01*
X50670359Y-37678939D01*
X50427405Y-37578304D01*
X50169486Y-37527000D01*
X49906514Y-37527000D01*
X49648595Y-37578304D01*
X49405641Y-37678939D01*
X49186987Y-37825038D01*
X49102525Y-37909500D01*
X49068784Y-37909500D01*
X49021999Y-37904892D01*
X48933000Y-37913658D01*
X48933000Y-37704665D01*
X48877853Y-37427426D01*
X48769680Y-37166273D01*
X48612637Y-36931241D01*
X48412759Y-36731363D01*
X48180241Y-36576000D01*
X48412759Y-36420637D01*
X48612637Y-36220759D01*
X48769680Y-35985727D01*
X48877853Y-35724574D01*
X48933000Y-35447335D01*
X48933000Y-35164665D01*
X48877853Y-34887426D01*
X48769680Y-34626273D01*
X48612637Y-34391241D01*
X48412759Y-34191363D01*
X48177727Y-34034320D01*
X47916574Y-33926147D01*
X47639335Y-33871000D01*
X47356665Y-33871000D01*
X47189325Y-33904287D01*
X46495852Y-33210814D01*
X46661158Y-33177932D01*
X46931411Y-33065990D01*
X47174632Y-32903475D01*
X47381475Y-32696632D01*
X47543990Y-32453411D01*
X47655932Y-32183158D01*
X47713000Y-31896260D01*
X47713000Y-31603740D01*
X47655932Y-31316842D01*
X47543990Y-31046589D01*
X47381475Y-30803368D01*
X47174632Y-30596525D01*
X47168641Y-30592522D01*
X47143511Y-30545506D01*
X47076860Y-30420810D01*
X46949896Y-30266104D01*
X46911133Y-30234292D01*
X46219712Y-29542872D01*
X46187896Y-29504104D01*
X46033190Y-29377140D01*
X45856687Y-29282798D01*
X45665171Y-29224702D01*
X45515902Y-29210000D01*
X45466000Y-29205085D01*
X45416098Y-29210000D01*
X38657893Y-29210000D01*
X38607999Y-29205086D01*
X38558105Y-29210000D01*
X38558098Y-29210000D01*
X38428177Y-29222796D01*
X38408828Y-29224702D01*
X38350732Y-29242326D01*
X38217313Y-29282798D01*
X38040810Y-29377140D01*
X37886104Y-29504104D01*
X37854292Y-29542867D01*
X35384872Y-32012288D01*
X35346104Y-32044104D01*
X35339555Y-32052084D01*
X35313346Y-31920321D01*
X35133560Y-31486279D01*
X34872550Y-31095651D01*
X34540349Y-30763450D01*
X34149721Y-30502440D01*
X33715679Y-30322654D01*
X33254902Y-30231000D01*
X32785098Y-30231000D01*
X32324321Y-30322654D01*
X31890279Y-30502440D01*
X31499651Y-30763450D01*
X31167450Y-31095651D01*
X30906440Y-31486279D01*
X30726654Y-31920321D01*
X30635000Y-32381098D01*
X30635000Y-32850902D01*
X30726654Y-33311679D01*
X30906440Y-33745721D01*
X31167450Y-34136349D01*
X31499651Y-34468550D01*
X31612570Y-34544000D01*
X29767893Y-34544000D01*
X29717999Y-34539086D01*
X29668105Y-34544000D01*
X29668098Y-34544000D01*
X29538177Y-34556796D01*
X29518828Y-34558702D01*
X29460732Y-34576326D01*
X29327313Y-34616798D01*
X29150810Y-34711140D01*
X28996104Y-34838104D01*
X28964293Y-34876866D01*
X27838000Y-36003160D01*
X27838000Y-29108000D01*
X56490000Y-29108000D01*
X56490000Y-34314962D01*
%TA.AperFunction,Conductor*%
D27*
G36*
X56490000Y-34314962D02*
G01*
X56078607Y-33903569D01*
X56048778Y-33867222D01*
X55903741Y-33748194D01*
X55738269Y-33659748D01*
X55558723Y-33605283D01*
X55418785Y-33591500D01*
X55372000Y-33586892D01*
X55325215Y-33591500D01*
X55065759Y-33591500D01*
X54965762Y-33491503D01*
X54743833Y-33343215D01*
X54576734Y-33274000D01*
X54743833Y-33204785D01*
X54965762Y-33056497D01*
X55154497Y-32867762D01*
X55302785Y-32645833D01*
X55404928Y-32399239D01*
X55457000Y-32137456D01*
X55457000Y-31870544D01*
X55404928Y-31608761D01*
X55302785Y-31362167D01*
X55154497Y-31140238D01*
X54965762Y-30951503D01*
X54743833Y-30803215D01*
X54497239Y-30701072D01*
X54235456Y-30649000D01*
X53968544Y-30649000D01*
X53706761Y-30701072D01*
X53460167Y-30803215D01*
X53238238Y-30951503D01*
X53138241Y-31051500D01*
X51862785Y-31051500D01*
X51816000Y-31046892D01*
X51769215Y-31051500D01*
X51629277Y-31065283D01*
X51539504Y-31092516D01*
X51449730Y-31119748D01*
X51366995Y-31163971D01*
X51284259Y-31208194D01*
X51139222Y-31327222D01*
X51109397Y-31363564D01*
X50025962Y-32447000D01*
X49906514Y-32447000D01*
X49648595Y-32498304D01*
X49405641Y-32598939D01*
X49186987Y-32745038D01*
X49001038Y-32930987D01*
X48854939Y-33149641D01*
X48754304Y-33392595D01*
X48703000Y-33650514D01*
X48703000Y-33913486D01*
X48754304Y-34171405D01*
X48854939Y-34414359D01*
X49001038Y-34633013D01*
X49186987Y-34818962D01*
X49405641Y-34965061D01*
X49648595Y-35065696D01*
X49906514Y-35117000D01*
X50169486Y-35117000D01*
X50427405Y-35065696D01*
X50670359Y-34965061D01*
X50889013Y-34818962D01*
X51074962Y-34633013D01*
X51221061Y-34414359D01*
X51321696Y-34171405D01*
X51373000Y-33913486D01*
X51373000Y-33794038D01*
X52210539Y-32956500D01*
X53138241Y-32956500D01*
X53238238Y-33056497D01*
X53460167Y-33204785D01*
X53627266Y-33274000D01*
X53460167Y-33343215D01*
X53238238Y-33491503D01*
X53049503Y-33680238D01*
X52901215Y-33902167D01*
X52799072Y-34148761D01*
X52747000Y-34410544D01*
X52747000Y-34677456D01*
X52799072Y-34939239D01*
X52901215Y-35185833D01*
X53049503Y-35407762D01*
X53238238Y-35596497D01*
X53460167Y-35744785D01*
X53627266Y-35814000D01*
X53460167Y-35883215D01*
X53238238Y-36031503D01*
X53049503Y-36220238D01*
X52901215Y-36442167D01*
X52799072Y-36688761D01*
X52747000Y-36950544D01*
X52747000Y-37217456D01*
X52799072Y-37479239D01*
X52901215Y-37725833D01*
X53049503Y-37947762D01*
X53238238Y-38136497D01*
X53460167Y-38284785D01*
X53706761Y-38386928D01*
X53968544Y-38439000D01*
X54235456Y-38439000D01*
X54497239Y-38386928D01*
X54743833Y-38284785D01*
X54965762Y-38136497D01*
X55154497Y-37947762D01*
X55302785Y-37725833D01*
X55404928Y-37479239D01*
X55435501Y-37325539D01*
X55435500Y-43495730D01*
X55253405Y-43420304D01*
X54995486Y-43369000D01*
X54876038Y-43369000D01*
X54808607Y-43301569D01*
X54778778Y-43265222D01*
X54633741Y-43146194D01*
X54468269Y-43057748D01*
X54288723Y-43003283D01*
X54148785Y-42989500D01*
X54102000Y-42984892D01*
X54055215Y-42989500D01*
X52426143Y-42989500D01*
X52414299Y-42960905D01*
X52246312Y-42709495D01*
X52179873Y-42643056D01*
X52198180Y-42637502D01*
X52308494Y-42578537D01*
X52405185Y-42499185D01*
X52484537Y-42402494D01*
X52543502Y-42292180D01*
X52579812Y-42172482D01*
X52592072Y-42048000D01*
X52589000Y-41433750D01*
X52430250Y-41275000D01*
X51181000Y-41275000D01*
X51181000Y-41295000D01*
X50927000Y-41295000D01*
X50927000Y-41275000D01*
X50907000Y-41275000D01*
X50907000Y-41021000D01*
X50927000Y-41021000D01*
X50927000Y-41001000D01*
X51181000Y-41001000D01*
X51181000Y-41021000D01*
X52430250Y-41021000D01*
X52589000Y-40862250D01*
X52592072Y-40248000D01*
X52579812Y-40123518D01*
X52543502Y-40003820D01*
X52484537Y-39893506D01*
X52405185Y-39796815D01*
X52308494Y-39717463D01*
X52198180Y-39658498D01*
X52078482Y-39622188D01*
X51954000Y-39609928D01*
X51339750Y-39613000D01*
X51181002Y-39771748D01*
X51181002Y-39613000D01*
X51141788Y-39613000D01*
X51221061Y-39494359D01*
X51321696Y-39251405D01*
X51373000Y-38993486D01*
X51373000Y-38730514D01*
X51321696Y-38472595D01*
X51221061Y-38229641D01*
X51074962Y-38010987D01*
X50889013Y-37825038D01*
X50670359Y-37678939D01*
X50427405Y-37578304D01*
X50169486Y-37527000D01*
X49906514Y-37527000D01*
X49648595Y-37578304D01*
X49405641Y-37678939D01*
X49186987Y-37825038D01*
X49102525Y-37909500D01*
X49068784Y-37909500D01*
X49021999Y-37904892D01*
X48933000Y-37913658D01*
X48933000Y-37704665D01*
X48877853Y-37427426D01*
X48769680Y-37166273D01*
X48612637Y-36931241D01*
X48412759Y-36731363D01*
X48180241Y-36576000D01*
X48412759Y-36420637D01*
X48612637Y-36220759D01*
X48769680Y-35985727D01*
X48877853Y-35724574D01*
X48933000Y-35447335D01*
X48933000Y-35164665D01*
X48877853Y-34887426D01*
X48769680Y-34626273D01*
X48612637Y-34391241D01*
X48412759Y-34191363D01*
X48177727Y-34034320D01*
X47916574Y-33926147D01*
X47639335Y-33871000D01*
X47356665Y-33871000D01*
X47189325Y-33904287D01*
X46495852Y-33210814D01*
X46661158Y-33177932D01*
X46931411Y-33065990D01*
X47174632Y-32903475D01*
X47381475Y-32696632D01*
X47543990Y-32453411D01*
X47655932Y-32183158D01*
X47713000Y-31896260D01*
X47713000Y-31603740D01*
X47655932Y-31316842D01*
X47543990Y-31046589D01*
X47381475Y-30803368D01*
X47174632Y-30596525D01*
X47168641Y-30592522D01*
X47143511Y-30545506D01*
X47076860Y-30420810D01*
X46949896Y-30266104D01*
X46911133Y-30234292D01*
X46219712Y-29542872D01*
X46187896Y-29504104D01*
X46033190Y-29377140D01*
X45856687Y-29282798D01*
X45665171Y-29224702D01*
X45515902Y-29210000D01*
X45466000Y-29205085D01*
X45416098Y-29210000D01*
X38657893Y-29210000D01*
X38607999Y-29205086D01*
X38558105Y-29210000D01*
X38558098Y-29210000D01*
X38428177Y-29222796D01*
X38408828Y-29224702D01*
X38350732Y-29242326D01*
X38217313Y-29282798D01*
X38040810Y-29377140D01*
X37886104Y-29504104D01*
X37854292Y-29542867D01*
X35384872Y-32012288D01*
X35346104Y-32044104D01*
X35339555Y-32052084D01*
X35313346Y-31920321D01*
X35133560Y-31486279D01*
X34872550Y-31095651D01*
X34540349Y-30763450D01*
X34149721Y-30502440D01*
X33715679Y-30322654D01*
X33254902Y-30231000D01*
X32785098Y-30231000D01*
X32324321Y-30322654D01*
X31890279Y-30502440D01*
X31499651Y-30763450D01*
X31167450Y-31095651D01*
X30906440Y-31486279D01*
X30726654Y-31920321D01*
X30635000Y-32381098D01*
X30635000Y-32850902D01*
X30726654Y-33311679D01*
X30906440Y-33745721D01*
X31167450Y-34136349D01*
X31499651Y-34468550D01*
X31612570Y-34544000D01*
X29767893Y-34544000D01*
X29717999Y-34539086D01*
X29668105Y-34544000D01*
X29668098Y-34544000D01*
X29538177Y-34556796D01*
X29518828Y-34558702D01*
X29460732Y-34576326D01*
X29327313Y-34616798D01*
X29150810Y-34711140D01*
X28996104Y-34838104D01*
X28964293Y-34876866D01*
X27838000Y-36003160D01*
X27838000Y-29108000D01*
X56490000Y-29108000D01*
X56490000Y-34314962D01*
G37*
%TD.AperFunction*%
%TD*%
M02*
