M48
; DRILL file {KiCad (5.1.7)-1} date 03/06/21 16:42:09
; FORMAT={-:-/ absolute / inch / decimal}
; #@! TF.CreationDate,2021-03-06T16:42:09+01:00
; #@! TF.GenerationSoftware,Kicad,Pcbnew,(5.1.7)-1
FMAT,2
INCH
T1C0.0276
T2C0.0315
T3C0.0354
T4C0.0394
T5C0.0433
T6C0.0598
T7C0.1378
%
G90
G05
T1
X2.16Y-1.76
X2.16Y-1.96
X1.97Y-1.33
X1.97Y-1.53
T2
X1.57Y-1.39
X1.57Y-1.49
X1.57Y-1.59
X1.57Y-1.69
X1.87Y-1.39
X1.87Y-1.49
X1.87Y-1.59
X1.87Y-1.69
X2.13Y-1.26
X2.13Y-1.36
X2.13Y-1.46
X1.87Y-1.95
X2.0669Y-1.95
X1.66Y-2.1316
X1.66Y-2.23
X1.66Y-1.85
X1.66Y-1.9484
X1.87Y-1.84
X2.0669Y-1.84
T3
X2.01Y-1.62
X2.01Y-1.72
T4
X1.62Y-1.25
X1.72Y-1.25
X1.82Y-1.25
T5
X1.2Y-1.94
X1.3Y-1.94
X1.4Y-1.94
T6
X1.92Y-2.16
X2.12Y-2.16
X1.2Y-2.16
X1.4Y-2.16
T7
X1.3Y-1.2841
T0
M30
